<?xml version="1.0" encoding="UTF-8" standalone="no"?>
<!-- Created with Inkscape (http://www.inkscape.org/) -->

<svg
   xmlns:dc="http://purl.org/dc/elements/1.1/"
   xmlns:cc="http://creativecommons.org/ns#"
   xmlns:rdf="http://www.w3.org/1999/02/22-rdf-syntax-ns#"
   xmlns:svg="http://www.w3.org/2000/svg"
   xmlns="http://www.w3.org/2000/svg"
   xmlns:xlink="http://www.w3.org/1999/xlink"
   xmlns:sodipodi="http://sodipodi.sourceforge.net/DTD/sodipodi-0.dtd"
   xmlns:inkscape="http://www.inkscape.org/namespaces/inkscape"
   width="600"
   height="600"
   viewBox="0 0 158.75 158.75"
   version="1.1"
   id="svg8"
   inkscape:version="0.92.4 (5da689c313, 2019-01-14)"
   sodipodi:docname="Torch.svg">
  <defs
     id="defs2">
    <linearGradient
       inkscape:collect="always"
       id="linearGradient821">
      <stop
         style="stop-color:#fff559;stop-opacity:1"
         offset="0"
         id="stop817" />
      <stop
         style="stop-color:#ffffff;stop-opacity:0"
         offset="1"
         id="stop819" />
    </linearGradient>
    <radialGradient
       inkscape:collect="always"
       xlink:href="#linearGradient821"
       id="radialGradient825"
       cx="79.512672"
       cy="217.75456"
       fx="79.512672"
       fy="217.75456"
       r="77.107262"
       gradientUnits="userSpaceOnUse"
       gradientTransform="translate(5.6084168e-6)" />
  </defs>
  <sodipodi:namedview
     id="base"
     pagecolor="#ffffff"
     bordercolor="#666666"
     borderopacity="1.0"
     inkscape:pageopacity="0.0"
     inkscape:pageshadow="2"
     inkscape:zoom="2.8"
     inkscape:cx="774.73873"
     inkscape:cy="310.82022"
     inkscape:document-units="mm"
     inkscape:current-layer="layer1"
     showgrid="false"
     inkscape:window-width="1920"
     inkscape:window-height="1057"
     inkscape:window-x="1912"
     inkscape:window-y="-8"
     inkscape:window-maximized="1"
     units="px" />
  <metadata
     id="metadata5">
    <rdf:RDF>
      <cc:Work
         rdf:about="">
        <dc:format>image/svg+xml</dc:format>
        <dc:type
           rdf:resource="http://purl.org/dc/dcmitype/StillImage" />
        <dc:title></dc:title>
      </cc:Work>
    </rdf:RDF>
  </metadata>
  <g
     inkscape:label="Calque 1"
     inkscape:groupmode="layer"
     id="layer1"
     transform="translate(0,-138.24998)">
    <circle
       style="opacity:1;vector-effect:none;fill:url(#radialGradient825);fill-opacity:1;fill-rule:evenodd;stroke:none;stroke-width:0.56499994;stroke-linecap:butt;stroke-linejoin:miter;stroke-miterlimit:4;stroke-dasharray:none;stroke-dashoffset:0;stroke-opacity:1;paint-order:stroke markers fill"
       id="path815"
       cx="79.245399"
       cy="218.28911"
       r="77.107262"
       inkscape:export-filename="D:\Godot_Files\Next_Quest\Textures\Common\Lumiere.png"
       inkscape:export-xdpi="96"
       inkscape:export-ydpi="96" />
    <path
       style="opacity:1;vector-effect:none;fill:#552200;fill-opacity:1;fill-rule:evenodd;stroke:#000000;stroke-width:0.86500001;stroke-linecap:butt;stroke-linejoin:miter;stroke-miterlimit:4;stroke-dasharray:none;stroke-dashoffset:0;stroke-opacity:1;paint-order:stroke markers fill"
       d="m 197.26251,202.85904 h 5.0267 l -1.32292,23.84905 -2.42811,0.0945 z"
       id="rect827"
       inkscape:connector-curvature="0"
       sodipodi:nodetypes="ccccc"
       inkscape:export-filename="D:\Godot_Files\Next_Quest\Textures\Common\torch.png"
       inkscape:export-xdpi="96"
       inkscape:export-ydpi="96" />
    <path
       style="fill:none;stroke:#000000;stroke-width:0.26458332px;stroke-linecap:butt;stroke-linejoin:miter;stroke-opacity:1"
       d="m 197.26251,202.85904 -1.18691,-5.55059 7.88446,0.16704 -1.67085,5.38355 -1.16889,-0.005 1.00226,-5.3788 h -1.70385 l -0.13363,5.31198 -1.20271,-0.0334 -0.43432,-5.41221 h -1.5368 l 0.96886,5.34539 z"
       id="path832"
       inkscape:connector-curvature="0"
       inkscape:export-filename="D:\Godot_Files\Next_Quest\Textures\Common\torch.png"
       inkscape:export-xdpi="96"
       inkscape:export-ydpi="96" />
    <path
       style="fill:none;stroke:#000000;stroke-width:0.26458332px;stroke-linecap:butt;stroke-linejoin:miter;stroke-opacity:1"
       d="m 196.30947,198.41093 7.21627,0.0668 -0.30068,1.33635 h -6.48128 l 0.26727,1.57021 5.7797,-0.10023"
       id="path834"
       inkscape:connector-curvature="0"
       inkscape:export-filename="D:\Godot_Files\Next_Quest\Textures\Common\torch.png"
       inkscape:export-xdpi="96"
       inkscape:export-ydpi="96" />
    <path
       style="fill:#d44b00;fill-opacity:1;stroke:#ecf000;stroke-width:0.26458332px;stroke-linecap:butt;stroke-linejoin:miter;stroke-opacity:1"
       d="m 186.484,201.60824 c -1.46466,-1.70089 -1.51191,-3.02381 -1.37017,-4.06324 0.14175,-1.03944 1.08669,-1.6064 0.85045,-2.74033 -0.23623,-1.13393 -0.85045,-1.46466 -0.85045,-1.46466 0,0 1.37017,0.61421 1.46466,1.32292 0.0945,0.7087 -0.61421,2.03162 -0.37797,2.64583 0.23623,0.61421 0.89769,0.7087 1.13393,0.0945 0.23623,-0.61422 0.18898,-1.6064 0.0945,-2.03163 -0.0945,-0.42522 -0.56696,-1.70089 -0.56696,-2.22061 0,-0.51972 0.18898,-1.18117 0.51971,-1.41741 0.33073,-0.23623 0.0472,1.32292 0.0472,1.32292 0,0 -0.0945,0.61421 0.23623,1.32291 0.33073,0.70871 1.08669,0.99219 1.08669,1.74815 0,0.75595 -0.23624,1.03943 -0.42523,1.55914 -0.18898,0.51972 -0.85044,0.70871 -0.0945,0.99219 0.75595,0.28348 0.85044,0.18899 1.08668,-0.51971 0.23624,-0.70871 0.51972,-0.66146 0.33073,-1.46466 -0.18899,-0.8032 -0.0945,-1.55915 -0.70871,-1.98438 -0.61421,-0.42522 -0.89769,-0.0472 -0.75595,-0.85044 0.14174,-0.8032 0.61421,-0.70871 0.61421,-0.70871 0,0 -0.33072,-0.0472 -0.14174,0.61421 0.18899,0.66146 0.66146,1.03944 0.8977,0.75596 0.23623,-0.28349 -0.0472,-1.22843 -0.0472,-1.22843 0,0 0.94494,1.37017 0.89769,1.74814 -0.0473,0.37798 -0.0473,0.66146 -0.0473,1.18118 0,0.51972 0.0945,1.32292 0,1.65364 -0.0945,0.33073 -0.18898,0.42523 -0.33072,0.8977 -0.14174,0.47247 0.23623,0.23623 -0.37798,1.32292 -0.61421,1.08668 -1.08668,1.65364 -1.08668,1.65364 z"
       id="path836"
       inkscape:connector-curvature="0"
       inkscape:export-filename="D:\Godot_Files\Next_Quest\Textures\Common\Fire.png"
       inkscape:export-xdpi="96"
       inkscape:export-ydpi="96" />
    <rect
       style="opacity:1;vector-effect:none;fill:#6a6a6a;fill-opacity:1;fill-rule:evenodd;stroke:#2a2a2a;stroke-width:0.86500001;stroke-linecap:butt;stroke-linejoin:miter;stroke-miterlimit:4;stroke-dasharray:none;stroke-dashoffset:0;stroke-opacity:1;paint-order:stroke markers fill"
       id="rect838"
       width="6.0003719"
       height="1.2756697"
       x="196.68936"
       y="218.85339"
       inkscape:export-filename="D:\Godot_Files\Next_Quest\Textures\Common\torch.png"
       inkscape:export-xdpi="96"
       inkscape:export-ydpi="96" />
  </g>
</svg>
